<svg width="24" height="24" viewBox="0 0 24 24" fill="none" xmlns="http://www.w3.org/2000/svg">
<path d="M15.6939 4.30487C15.5975 4.20823 15.483 4.13156 15.3569 4.07924C15.2308 4.02693 15.0957 4 14.9592 4C14.8227 4 14.6875 4.02693 14.5615 4.07924C14.4354 4.13156 14.3209 4.20823 14.2245 4.30487L7.24278 11.2866C7.16582 11.3634 7.10476 11.4546 7.0631 11.555C7.02144 11.6554 7 11.7631 7 11.8718C7 11.9806 7.02144 12.0882 7.0631 12.1886C7.10476 12.2891 7.16582 12.3803 7.24278 12.4571L14.2245 19.4388C14.6313 19.8456 15.2871 19.8456 15.6939 19.4388C16.1006 19.032 16.1006 18.3762 15.6939 17.9694L9.60045 11.876L15.7022 5.77426C16.1006 5.36748 16.1006 4.71165 15.6939 4.30487Z" fill="#251031"/>
</svg>
