<svg width="16" height="9" viewBox="0 0 16 9" fill="none" xmlns="http://www.w3.org/2000/svg">
<path d="M0.304865 0.306132C0.208227 0.402526 0.131555 0.517036 0.0792415 0.643108C0.0269277 0.769179 -3.53873e-07 0.904333 -3.47906e-07 1.04083C-3.4194e-07 1.17732 0.0269277 1.31248 0.0792415 1.43855C0.131555 1.56462 0.208227 1.67913 0.304865 1.77553L7.28656 8.75722C7.36337 8.83418 7.45459 8.89524 7.55502 8.9369C7.65545 8.97856 7.7631 9 7.87183 9C7.98056 9 8.08821 8.97856 8.18864 8.9369C8.28907 8.89524 8.3803 8.83418 8.4571 8.75722L15.4388 1.77552C15.8456 1.36874 15.8456 0.712913 15.4388 0.306132C15.032 -0.10065 14.3762 -0.10065 13.9694 0.306132L7.87598 6.39955L1.77426 0.29783C1.36748 -0.10065 0.711647 -0.10065 0.304865 0.306132Z" fill="#251031"/>
</svg>
