<svg width="23" height="22" viewBox="0 0 23 22" fill="none" xmlns="http://www.w3.org/2000/svg">
<path d="M21.4163 0H13.0022C12.4244 0 11.6153 0.33516 11.2072 0.743243L0.775151 11.1753C0.578447 11.3729 0.468018 11.6404 0.468018 11.9192C0.468018 12.1981 0.578447 12.4655 0.775151 12.6632L9.80485 21.6929C10.0025 21.8896 10.27 22 10.5488 22C10.8276 22 11.0951 21.8896 11.2927 21.6929L21.7248 11.2608C22.1343 10.8513 22.468 10.0436 22.468 9.46583V1.05176C22.4669 0.773156 22.3557 0.50628 22.1587 0.309277C21.9617 0.112273 21.6949 0.00110778 21.4163 0V0ZM16.1575 8.41407C15.8811 8.41397 15.6075 8.35946 15.3523 8.25362C15.097 8.14779 14.8651 7.99272 14.6698 7.79726C14.4744 7.6018 14.3195 7.36978 14.2139 7.11445C14.1082 6.85912 14.0539 6.58548 14.054 6.30915C14.054 6.03282 14.1086 5.75921 14.2144 5.50395C14.3202 5.24869 14.4753 5.01678 14.6708 4.82145C14.8662 4.62612 15.0982 4.4712 15.3536 4.36554C15.6089 4.25987 15.8825 4.20554 16.1589 4.20563C16.7169 4.20582 17.2521 4.42769 17.6466 4.82244C18.0411 5.21719 18.2626 5.75248 18.2624 6.31055C18.2622 6.86862 18.0403 7.40377 17.6456 7.79825C17.2508 8.19274 16.7155 8.41425 16.1575 8.41407Z" fill="white"/>
</svg>
