<svg width="21" height="24" viewBox="0 0 21 24" fill="none" xmlns="http://www.w3.org/2000/svg">
<path d="M3 19.3125C3 20.2441 3.75586 21 4.6875 21H17.0625C17.9941 21 18.75 20.2441 18.75 19.3125V9.75H3V19.3125ZM5.25 12.5625C5.25 12.2531 5.50312 12 5.8125 12H9.1875C9.49687 12 9.75 12.2531 9.75 12.5625V15.9375C9.75 16.2469 9.49687 16.5 9.1875 16.5H5.8125C5.50312 16.5 5.25 16.2469 5.25 15.9375V12.5625ZM17.0625 5.25H15.375V3.5625C15.375 3.25312 15.1219 3 14.8125 3H13.6875C13.3781 3 13.125 3.25312 13.125 3.5625V5.25H8.625V3.5625C8.625 3.25312 8.37187 3 8.0625 3H6.9375C6.62812 3 6.375 3.25312 6.375 3.5625V5.25H4.6875C3.75586 5.25 3 6.00586 3 6.9375V8.625H18.75V6.9375C18.75 6.00586 17.9941 5.25 17.0625 5.25Z" fill="#690FB7"/>
</svg>
