<svg width="390" height="310" viewBox="0 0 390 310" fill="none" xmlns="http://www.w3.org/2000/svg">
<mask id="mask0_284_3501" style="mask-type:alpha" maskUnits="userSpaceOnUse" x="0" y="0" width="390" height="310">
<path d="M0 0H390V278C390 295.673 375.673 310 358 310H32C14.3269 310 0 295.673 0 278V0Z" fill="url(#paint0_linear_284_3501)"/>
</mask>
<g mask="url(#mask0_284_3501)">
<path d="M0 0H390V278C390 295.673 375.673 310 358 310H32C14.3269 310 0 295.673 0 278V0Z" fill="url(#paint1_linear_284_3501)"/>
<ellipse opacity="0.07" cx="368.151" cy="-0.243385" rx="93.75" ry="93.7566" fill="white"/>
<ellipse opacity="0.07" cx="18.5554" cy="285.254" rx="51.25" ry="51.2536" fill="white"/>
</g>
<defs>
<linearGradient id="paint0_linear_284_3501" x1="1.80188e-06" y1="154.162" x2="390" y2="154.162" gradientUnits="userSpaceOnUse">
<stop stop-color="#690FB7"/>
<stop offset="1" stop-color="#770EB2"/>
</linearGradient>
<linearGradient id="paint1_linear_284_3501" x1="1.80188e-06" y1="154.162" x2="390" y2="154.162" gradientUnits="userSpaceOnUse">
<stop stop-color="#690FB7"/>
<stop offset="1" stop-color="#770EB2"/>
</linearGradient>
</defs>
</svg>
