<svg width="19" height="19" viewBox="0 0 19 19" fill="none" xmlns="http://www.w3.org/2000/svg">
<g clip-path="url(#clip0_504_4997)">
<path d="M0 2.90274C0 1.73668 0.945052 0.791626 2.11111 0.791626H7.38889V5.01385C7.38889 5.5977 7.86059 6.0694 8.44444 6.0694H12.6667V10.6743L9.54288 13.798C9.2724 14.0685 9.08108 14.4083 8.98872 14.781L8.49063 16.7635C8.41476 17.0736 8.43455 17.3902 8.53681 17.6805H2.11111C0.945052 17.6805 0 16.7338 0 15.5694V2.90274ZM8.44444 5.01385V0.791626L12.6667 5.01385H8.44444ZM18.6075 9.04145C19.1253 9.55604 19.1253 10.3906 18.6075 10.9085L17.6377 11.8783L15.299 9.53624L16.2688 8.56645C16.7833 8.05187 17.6179 8.05187 18.1358 8.56645L18.6075 9.04145ZM10.2884 14.5171L14.5502 10.285L16.8922 12.6237L12.6304 16.8855C12.4951 17.0208 12.3236 17.1165 12.1389 17.1626L10.1564 17.6607C9.975 17.7036 9.78698 17.6508 9.65504 17.5222C9.52309 17.3902 9.47031 17.1989 9.51649 16.9911L10.0113 15.035C10.0575 14.8503 10.1531 14.6821 10.2884 14.5171Z" fill="#690FB7"/>
</g>
<defs>
<clipPath id="clip0_504_4997">
<rect width="19" height="16.8889" fill="white" transform="translate(0 0.791626)"/>
</clipPath>
</defs>
</svg>
