<svg width="24" height="24" viewBox="0 0 24 24" fill="none" xmlns="http://www.w3.org/2000/svg">
<path d="M2.25 6C2.25 5.10489 2.60558 4.24645 3.23852 3.61351C3.87145 2.98058 4.7299 2.625 5.625 2.625H18.375C19.2701 2.625 20.1286 2.98058 20.7615 3.61351C21.3944 4.24645 21.75 5.10489 21.75 6V18.75C21.75 19.5 21.5048 20.1938 21.09 20.754L13.3643 12.582C13.189 12.3967 12.9778 12.2491 12.7436 12.1482C12.5093 12.0473 12.2569 11.9952 12.0019 11.9952C11.7468 11.9952 11.4944 12.0473 11.2602 12.1482C11.0259 12.2491 10.8147 12.3967 10.6395 12.582L2.91 20.754C2.48054 20.1742 2.24912 19.4715 2.25 18.75V6ZM4.047 21.7342C4.53309 21.9917 5.07495 22.1259 5.625 22.125H18.375C18.9251 22.1259 19.4669 21.9917 19.953 21.7342L12.2738 13.6125C12.2387 13.5755 12.1965 13.546 12.1497 13.5259C12.1029 13.5058 12.0525 13.4954 12.0015 13.4954C11.9505 13.4954 11.9001 13.5058 11.8533 13.5259C11.8065 13.546 11.7643 13.5755 11.7293 13.6125L4.047 21.735V21.7342ZM18.375 8.625C18.375 8.02826 18.1379 7.45597 17.716 7.03401C17.294 6.61205 16.7217 6.375 16.125 6.375C15.5283 6.375 14.956 6.61205 14.534 7.03401C14.1121 7.45597 13.875 8.02826 13.875 8.625C13.875 9.22174 14.1121 9.79403 14.534 10.216C14.956 10.6379 15.5283 10.875 16.125 10.875C16.7217 10.875 17.294 10.6379 17.716 10.216C18.1379 9.79403 18.375 9.22174 18.375 8.625Z" fill="#690FB7"/>
</svg>
