<svg width="21" height="21" viewBox="0 0 21 21" fill="none" xmlns="http://www.w3.org/2000/svg">
<path d="M0 8.28225V7.17767C0.0358139 6.92093 0.0716259 6.66417 0.119378 6.4134C0.471829 4.41509 1.59256 2.63431 3.24153 1.45246C4.8905 0.270605 6.93658 -0.218322 8.94153 0.0903797C9.97945 0.254288 10.9733 0.627336 11.8628 1.18694C12.7522 1.74654 13.5188 2.48102 14.116 3.34584C14.7132 4.21066 15.1286 5.18782 15.337 6.21803C15.5454 7.24824 15.5425 8.31005 15.3283 9.33909C15.0925 10.4721 14.6051 11.5377 13.902 12.4568C13.199 13.376 12.2984 14.1253 11.2667 14.6493C10.2351 15.1733 9.09891 15.4585 7.9422 15.484C6.78548 15.5095 5.63784 15.2745 4.58418 14.7964C4.40728 14.6969 4.20245 14.6588 4.00162 14.6879C3.80079 14.7171 3.61526 14.8119 3.47395 14.9576C3.06011 15.3245 2.55888 15.5787 2.01843 15.6958C1.47799 15.8129 0.916508 15.789 0.387985 15.6263C0.387985 15.6263 0.387985 15.5785 0.387985 15.5666L0.447673 15.4352C1.08617 13.9943 1.15863 12.3656 0.650617 10.8736C0.495423 10.3959 0.322326 9.9242 0.196977 9.4346C0.101474 9.05247 0.0596898 8.66438 0 8.28225ZM13.0004 7.76279C12.9989 7.46612 12.8799 7.18216 12.6697 6.97294C12.4594 6.76372 12.1749 6.64626 11.8783 6.64627C11.5811 6.64783 11.2966 6.76659 11.0865 6.97676C10.8764 7.18693 10.7577 7.47155 10.7561 7.76877C10.7592 8.06599 10.8795 8.34998 11.0907 8.55903C11.3019 8.76808 11.5871 8.88532 11.8842 8.8853C12.1808 8.88372 12.4647 8.76478 12.6739 8.55444C12.883 8.3441 13.0004 8.05947 13.0004 7.76279ZM8.86393 7.76279C8.86394 7.61567 8.83487 7.47001 8.7784 7.33416C8.72193 7.1983 8.63918 7.07495 8.5349 6.97119C8.43062 6.86743 8.30686 6.7853 8.17075 6.72954C8.03464 6.67378 7.88885 6.64548 7.74177 6.64627C7.44519 6.64784 7.16129 6.76683 6.95213 6.97716C6.74297 7.1875 6.62556 7.4721 6.62557 7.76877C6.62714 8.06544 6.74607 8.34941 6.95634 8.55863C7.16662 8.76785 7.45115 8.88531 7.74773 8.8853C7.89482 8.8853 8.04046 8.85622 8.17627 8.79973C8.31209 8.74325 8.4354 8.6605 8.53913 8.55619C8.64285 8.45187 8.72495 8.32806 8.78069 8.19191C8.83643 8.05575 8.86472 7.90992 8.86393 7.76279ZM2.49503 7.76279C2.49344 8.05948 2.60933 8.34473 2.81737 8.55619C3.02541 8.76765 3.30868 8.88813 3.60526 8.89128C3.75235 8.89285 3.89829 8.86533 4.0347 8.8103C4.17112 8.75527 4.29531 8.67382 4.40015 8.57062C4.50499 8.46741 4.5884 8.34448 4.64559 8.20893C4.70278 8.07337 4.73262 7.92786 4.7334 7.78073C4.73664 7.48606 4.62391 7.20191 4.41954 6.98966C4.21518 6.77742 3.93557 6.65409 3.64108 6.64627C3.4925 6.64229 3.34463 6.66804 3.20614 6.72199C3.06765 6.77595 2.94132 6.85703 2.83457 6.96047C2.72782 7.06392 2.6428 7.18764 2.5845 7.32439C2.52619 7.46114 2.49578 7.60815 2.49503 7.75682V7.76279Z" fill="#690FB7"/>
<path d="M19.3216 21C19.0292 20.9382 18.7418 20.8543 18.4621 20.7492C18.1225 20.5897 17.8038 20.3892 17.513 20.1521C17.3828 20.0228 17.2146 19.9386 17.0331 19.9117C16.8516 19.8849 16.6663 19.9168 16.5042 20.0029C14.7963 20.7889 12.8613 20.928 11.0586 20.3942C9.2559 19.8605 7.70822 18.6903 6.70316 17.1011L6.55394 16.8443C7.98894 17.0355 9.44885 16.8799 10.8114 16.3906C12.1739 15.9013 13.3994 15.0926 14.3852 14.0321C15.3929 12.9898 16.1357 11.7207 16.5512 10.3316C16.9667 8.94245 17.0427 7.47382 16.7728 6.04919C17.3101 6.30786 17.8117 6.63499 18.2651 7.02242C19.7607 8.25237 20.7232 10.013 20.9511 11.9363C21.0904 13.2329 20.9311 14.5441 20.4855 15.7696C20.1867 16.5921 20.039 17.4619 20.0498 18.337C20.0773 19.131 20.2535 19.9127 20.5691 20.6417C20.5691 20.7074 20.6228 20.7671 20.6586 20.8567L20.0617 21H19.3216Z" fill="#690FB7"/>
</svg>
