<svg width="26" height="23" viewBox="0 0 26 23" fill="none" xmlns="http://www.w3.org/2000/svg">
<path d="M9.24156 22.75H7.79961C7.65472 22.75 7.51216 22.7132 7.38496 22.6432C7.25776 22.5732 7.14998 22.4721 7.07147 22.3491C6.99296 22.2262 6.94624 22.0853 6.93557 21.9394C6.9249 21.7936 6.95062 21.6473 7.01038 21.5141L10.502 13.7348L5.25914 13.6172L3.34702 15.9562C2.98247 16.4188 2.69158 16.625 1.94948 16.625H0.978798C0.825108 16.63 0.672491 16.5975 0.53388 16.5303C0.395268 16.4631 0.274747 16.3631 0.18253 16.2389C0.0536111 16.0634 -0.0731416 15.7659 0.0503611 15.3415L1.12397 11.4587C1.13209 11.4297 1.14184 11.4007 1.15268 11.3723C1.15322 11.3696 1.15322 11.3668 1.15268 11.3641C1.14149 11.3356 1.1319 11.3066 1.12397 11.2771L0.0492777 7.36969C-0.0671831 6.95352 0.0601112 6.66258 0.187947 6.49141C0.27379 6.37641 0.385162 6.28335 0.513108 6.21971C0.641055 6.15608 0.782006 6.12364 0.92463 6.125H1.94948C2.50362 6.125 3.04151 6.37602 3.35785 6.78125L5.23043 9.08086L10.502 9.00211L7.01147 1.23648C6.95162 1.10329 6.9258 0.957081 6.93636 0.811214C6.94692 0.665348 6.99352 0.524481 7.07192 0.401491C7.15031 0.278501 7.25799 0.177312 7.38511 0.107175C7.51224 0.037038 7.65474 0.000189978 7.79961 0H9.25727C9.46063 0.00412584 9.66045 0.0544479 9.84191 0.14723C10.0234 0.240011 10.1818 0.372869 10.3054 0.535937L17.0791 8.84844L20.2084 8.76531C20.4375 8.75273 21.0724 8.74836 21.2191 8.74836C24.2125 8.75 26 9.73109 26 11.375C26 11.8923 25.7952 12.8516 24.4253 13.4619C23.6166 13.8228 22.5376 14.0055 21.2181 14.0055C21.0729 14.0055 20.4397 14.0011 20.2073 13.9885L17.0786 13.9043L10.2881 22.2168C10.1644 22.3791 10.0061 22.5114 9.82493 22.6036C9.64378 22.6959 9.44442 22.746 9.24156 22.75Z" fill="#690FB7"/>
</svg>
