<svg width="34" height="33" viewBox="0 0 34 33" fill="none" xmlns="http://www.w3.org/2000/svg">
<path fill-rule="evenodd" clip-rule="evenodd" d="M19.9408 32.6695C20.6996 32.6173 21.2626 31.9651 22.3886 30.6607L31.9429 19.5926C33.0689 18.2882 33.6319 17.636 33.5727 16.8778C33.5135 16.1195 32.8553 15.5513 31.5387 14.4148L17.7714 2.53041C16.3081 1.26723 15.5765 0.63564 14.6764 0.430036C13.7763 0.224433 12.8498 0.477254 10.9967 0.982894L6.7463 2.14271C4.46063 2.76641 3.3178 3.07825 2.59459 3.91604C1.87139 4.75383 1.72976 5.92995 1.4465 8.28218L0.919764 12.6564C0.690123 14.5634 0.575301 15.5169 0.910132 16.3774C1.24496 17.2378 1.97662 17.8694 3.43993 19.1325L17.2072 31.0169C18.5238 32.1534 19.182 32.7216 19.9408 32.6695ZM12.7977 7.89481C11.2553 6.56336 8.93558 6.72284 7.6164 8.25103C6.29722 9.77921 6.47818 12.0974 8.02058 13.4289C9.56298 14.7603 11.8828 14.6008 13.2019 13.0726C14.5211 11.5445 14.3402 9.22626 12.7977 7.89481Z" fill="#690FB7"/>
</svg>
