<svg width="23" height="26" viewBox="0 0 23 26" fill="none" xmlns="http://www.w3.org/2000/svg">
<path d="M13.5629 12.5667C13.6056 12.5667 13.6473 12.5541 13.6829 12.5305C13.7184 12.5069 13.7462 12.4733 13.7628 12.434C13.7793 12.3947 13.7839 12.3513 13.7759 12.3094C13.7679 12.2674 13.7477 12.2288 13.7178 12.1983L9.47114 7.88017C9.44096 7.84952 9.40235 7.82855 9.36021 7.81993C9.31807 7.81131 9.27432 7.81542 9.23453 7.83174C9.19474 7.84806 9.16071 7.87586 9.13677 7.91159C9.11283 7.94732 9.10006 7.98937 9.1001 8.03237V11.9167C9.1001 12.0891 9.16858 12.2544 9.29048 12.3763C9.41238 12.4982 9.57771 12.5667 9.7501 12.5667H13.5629Z" fill="#690FB7"/>
<path d="M8.07083 13.5958C7.84835 13.3763 7.67157 13.1149 7.55071 12.8267C7.42984 12.5385 7.36729 12.2292 7.36667 11.9167V6.93333H3.46667C2.54808 6.93605 1.6679 7.30216 1.01836 7.95169C0.368824 8.60123 0.00271497 9.48142 0 10.4V22.5333C0 23.4527 0.365237 24.3345 1.01536 24.9846C1.66549 25.6348 2.54725 26 3.46667 26H11.2667C12.1861 26 13.0678 25.6348 13.718 24.9846C14.3681 24.3345 14.7333 23.4527 14.7333 22.5333V14.3H9.75C9.43744 14.2996 9.12808 14.2371 8.83984 14.1162C8.5516 13.9953 8.29022 13.8185 8.07083 13.5958ZM17.55 5.63333H21.3628C21.4055 5.63337 21.4472 5.6208 21.4828 5.59719C21.5183 5.57359 21.5462 5.54001 21.5627 5.50067C21.5792 5.46132 21.5838 5.41796 21.5758 5.37604C21.5678 5.33411 21.5476 5.29548 21.5177 5.265L17.271 0.946832C17.2409 0.916188 17.2022 0.895219 17.1601 0.886595C17.118 0.877971 17.0742 0.882082 17.0344 0.898405C16.9946 0.914729 16.9606 0.942525 16.9367 0.978255C16.9127 1.01398 16.9 1.05603 16.9 1.09904V4.98333C16.9 5.15572 16.9685 5.32105 17.0904 5.44295C17.2123 5.56485 17.3776 5.63333 17.55 5.63333Z" fill="#690FB7"/>
<path d="M17.55 7.36667C16.9194 7.36185 16.316 7.1092 15.87 6.66328C15.4241 6.21736 15.1715 5.61394 15.1666 4.98333V0H9.31665C8.455 0.0010035 7.62894 0.343735 7.01966 0.953011C6.41039 1.56229 6.06765 2.38835 6.06665 3.25V5.2H8.34815C8.63936 5.20116 8.92747 5.25986 9.19593 5.37271C9.46439 5.48556 9.7079 5.65034 9.91248 5.85758L15.8253 11.8701C16.2378 12.2886 16.4682 12.8533 16.4661 13.4409V20.8H19.3397C21.1006 20.8 22.5328 19.3418 22.5328 17.55V7.36667H17.55Z" fill="#690FB7"/>
</svg>
